PathFileType	4	(X/Y/Z)	C:\Users\chris\Documents\GitHub\baseballds\vids\pitch5_Sports2D\pitch5_Sports2D_m_person02.trc
DataRate	CameraRate	NumFrames	NumMarkers	Units	OrigDataRate	OrigDataStartFrame	OrigNumFrames
30	30	6	22	m	30	37	149
Frame#	Time	Hip			RHip			RKnee			RAnkle			RBigToe			RSmallToe			RHeel			LHip			LKnee			LAnkle			LBigToe			LSmallToe			LHeel			Neck			Head			Nose			RShoulder			RElbow			RWrist			LShoulder			LElbow			LWrist		
		X1	Y1	Z1	X2	Y2	Z2	X3	Y3	Z3	X4	Y4	Z4	X5	Y5	Z5	X6	Y6	Z6	X7	Y7	Z7	X8	Y8	Z8	X9	Y9	Z9	X10	Y10	Z10	X11	Y11	Z11	X12	Y12	Z12	X13	Y13	Z13	X14	Y14	Z14	X15	Y15	Z15	X16	Y16	Z16	X17	Y17	Z17	X18	Y18	Z18	X19	Y19	Z19	X20	Y20	Z20	X21	Y21	Z21	X22	Y22	Z22
37	1.2333333333333334	2.4140339788087135	1.1989771037089245	0.0	2.4332678448173533	1.1905881777433567	0.0	2.4603266588351387	1.0920231661984154	0.0	2.3838738187872917	1.0921595502650818	0.0	2.3740180146860936	1.0660623271156702	0.0	2.3810667388162177	1.0626493706331872	0.0	2.3693460227519534	1.102911666553799	0.0	2.39683474073581	1.1890218525307732	0.0	2.421265902067676	1.0902902841256283	0.0	2.413498928982672	1.0062430792386805	0.0	2.4334425773510113	0.9913996909111302	0.0	2.42948170099182	0.994872574145306	0.0	2.405486847278962	0.9923029545097042	0.0	2.4329143171160816	1.3155211654291725	0.0	2.431776761325542	1.3468717211267804	0.0	2.4363464554363055	1.3390249497839264	0.0	2.4681126705093406	1.3017374519499572	0.0	2.4802242680265185	1.252736905013015	0.0	2.493208315343813	1.1991962636993931	0.0	2.3931319019646025	1.293096771213463	0.0	2.361840863414941	1.241098370512351	0.0	2.39614690953682	1.222413051920644	0.0
38	1.2666666666666666	2.4319499234033706	1.2027571536508148	0.0	2.4521361309538703	1.1955906315545826	0.0	2.4912037133886593	1.1007484069622018	0.0	2.4176907911844467	1.0819154190963378	0.0	2.418159613896539	1.052944211861882	0.0	2.4261540046951997	1.048335706789433	0.0	2.402828753515577	1.0898787049966774	0.0	2.4147820382029486	1.1938127333963744	0.0	2.4293124737458536	1.093504215720726	0.0	2.4135119111143783	1.0061820031118658	0.0	2.429989140012885	0.98869755877653	0.0	2.424197249055966	0.9914954770986184	0.0	2.4054898265782296	0.9917770505288263	0.0	2.4524729417834905	1.3184830886322763	0.0	2.4518000941069378	1.3498929740403038	0.0	2.456206003080387	1.3405832172087206	0.0	2.486353161296749	1.3064231998054439	0.0	2.497368599877148	1.260402593791502	0.0	2.508390109736463	1.2078759849085747	0.0	2.414439297230917	1.2954227624591519	0.0	2.3862517378923696	1.2408564580485653	0.0	2.420324048134617	1.2244491324355997	0.0
39	1.3	2.4517123697700365	1.2094502696828555	0.0	2.4723795895921628	1.2041463904876508	0.0	2.5151896064960417	1.1121151022743583	0.0	2.4520825655498157	1.0662831257204295	0.0	2.466072438541089	1.0314411313078453	0.0	2.4691263474120357	1.028600786608335	0.0	2.4365560991700774	1.0674311002389048	0.0	2.4340052127707947	1.2020808533289058	0.0	2.437510226288253	1.1003760431699	0.0	2.4153006936364436	1.0092497470804251	0.0	2.429925840911433	0.9888436178037576	0.0	2.4207759355563017	0.9899681424885007	0.0	2.4078413025228014	0.9936306403496309	0.0	2.4713458017003864	1.3259071256654127	0.0	2.4717973102904636	1.3627488850227827	0.0	2.47466571334003	1.3487019411038805	0.0	2.5037201832332228	1.3162591841622382	0.0	2.5137781184566723	1.2738330466885788	0.0	2.5239607939789273	1.223089176726031	0.0	2.435110546493728	1.302233578342196	0.0	2.4103178684248245	1.2461582510983755	0.0	2.4396325503917167	1.2303548067383314	0.0
40	1.3333333333333333	2.473200782967935	1.2174657351187723	0.0	2.494116005159361	1.2111764987914253	0.0	2.5343276464284905	1.1207702009013962	0.0	2.487584377096216	1.049680486251726	0.0	2.5123497779376676	1.014379074066313	0.0	2.5097926396417285	1.012342525222928	0.0	2.4726190531072074	1.042845255865277	0.0	2.4548425951371713	1.2093391318764333	0.0	2.4466154682242496	1.1087415374911127	0.0	2.4196324564091847	1.0167024632616497	0.0	2.433897199311009	0.9918464804073485	0.0	2.423682984855484	0.9921536835893382	0.0	2.4124339057624726	1.0016409421732058	0.0	2.4908756715488383	1.335466782172246	0.0	2.49205391222428	1.375540341133923	0.0	2.493743047600305	1.360016610346938	0.0	2.521550609423082	1.32715080134476	0.0	2.528841505503232	1.2882110146309875	0.0	2.5417797306405823	1.2390613522136884	0.0	2.455611878448306	1.3117779049695362	0.0	2.431648338569627	1.2548536927241547	0.0	2.453799510083974	1.238735617493975	0.0
41	1.3666666666666667	2.4949701200692616	1.225816482991952	0.0	2.515892959102351	1.2149038401949244	0.0	2.551423747023656	1.1245752664750974	0.0	2.5249057141756177	1.0375490575530566	0.0	2.55513990225993	1.0102964120393314	0.0	2.5511183232635033	1.0059506820440645	0.0	2.512441404107313	1.0243737584941517	0.0	2.4767589944955812	1.2138625409685015	0.0	2.4572139942665863	1.1168510773772862	0.0	2.425880675258849	1.027776419785749	0.0	2.439760254619047	0.9964598415876084	0.0	2.432046761496279	0.9980647022541927	0.0	2.4184229094510385	1.0161961630566485	0.0	2.5124080950778747	1.3450370445100615	0.0	2.5140503004755046	1.3816995311573093	0.0	2.515471091882033	1.3705062966698671	0.0	2.540303018243719	1.3357372553847648	0.0	2.5430549982172534	1.2997725660444353	0.0	2.560600123548097	1.2513101265840698	0.0	2.4772020894323554	1.3220525960099754	0.0	2.4509379616847995	1.2652709268958997	0.0	2.4671864347828785	1.2483972521105782	0.0
42	1.4	2.515619191480543	1.2327808049488658	0.0	2.5363353954277543	1.217189728244987	0.0	2.5686091919311145	1.125343009604774	0.0	2.5628798951610063	1.032521905892629	0.0	2.594368518640161	1.0161675360893998	0.0	2.5923228737713315	1.0088289553142094	0.0	2.5544180899453957	1.0157270905710183	0.0	2.4983346403721565	1.2170206002043218	0.0	2.4703729205330087	1.123982854947174	0.0	2.43396173677199	1.0414554127699305	0.0	2.4446666819507175	1.0030782052703473	0.0	2.4401302944878185	1.0072295166434977	0.0	2.426034354475922	1.0344293638332787	0.0	2.5347394576362796	1.3519502035215474	0.0	2.537511830220759	1.3830893364693662	0.0	2.538942150447554	1.3766321846602187	0.0	2.558764370584118	1.340872343150319	0.0	2.5573376659198153	1.3077678182023234	0.0	2.5779283787438776	1.258483744707756	0.0	2.499280564689324	1.329916824089625	0.0	2.470343467177127	1.2743905162676372	0.0	2.484012464692256	1.2574887143387772	0.0
